<svg width="48" height="44" viewBox="0 0 48 44" fill="none" xmlns="http://www.w3.org/2000/svg">
<mask id="mask0_7561_93717" style="mask-type:alpha" maskUnits="userSpaceOnUse" x="0" y="0" width="48" height="44">
<path d="M37.964 41.1099L37.964 40.9912C37.964 39.5668 38.9131 38.8546 40.2181 38.8546L40.4554 38.8546C41.8791 38.8546 42.9468 37.7863 42.9468 36.3619L42.9468 36.1245C42.9468 34.8187 43.6586 33.8691 45.0823 33.8691L45.2009 33.8691C46.6246 33.8691 47.4551 33.0382 47.4551 31.6138L47.4551 12.3842C47.4551 10.9598 46.6246 10.1289 45.2009 10.1289L45.0823 10.1289C43.6586 10.1289 42.9468 9.1793 42.9468 7.87358L42.9468 7.63618C42.9468 6.21177 41.8791 5.14346 40.4554 5.14346L40.2181 5.14346C38.9131 5.14346 37.964 4.43125 37.964 3.00684L37.964 2.88813C37.964 1.46372 37.1335 0.632812 35.7098 0.632812L11.7448 0.632811C10.3212 0.632811 9.4907 1.46372 9.4907 2.88813L9.4907 3.00683C9.4907 4.43125 8.5416 5.14345 7.23657 5.14345L6.9993 5.14345C5.57563 5.14345 4.50788 6.21176 4.50788 7.63618L4.50788 7.87358C4.50788 9.17929 3.79605 10.1289 2.37239 10.1289L2.25375 10.1289C0.830085 10.1289 -0.000385736 10.9598 -0.000385798 12.3842L-0.000386639 31.6138C-0.000386701 33.0382 0.830084 33.8691 2.25375 33.8691L2.37239 33.8691C3.79605 33.8691 4.50788 34.8187 4.50788 36.1245L4.50788 36.3619C4.50788 37.7863 5.57563 38.8546 6.9993 38.8546L7.23657 38.8546C8.5416 38.8546 9.4907 39.5668 9.4907 40.9912L9.4907 41.1099C9.4907 42.5343 10.3212 43.3652 11.7448 43.3652L35.7098 43.3652C37.1335 43.3652 37.964 42.5343 37.964 41.1099Z" fill="white"/>
</mask>
<g mask="url(#mask0_7561_93717)">
<path d="M34.3451 27.3465L28.211 28.2852C27.8765 33.9445 26.4541 39.0269 24.0825 43.0003L-71.1838 39.4L-69.7187 0.632813L25.6653 4.2375C29.2797 11.0575 32.2649 18.9393 34.3451 27.3465Z" fill="#FF073C"/>
<path d="M18.8594 12.8242C18.5427 12.8242 18.2682 13.0427 18.1836 13.305H19.3451C19.3451 13.021 19.1551 12.8242 18.8594 12.8242Z" fill="#FF073C"/>
<path d="M18.1402 10.2461C15.3948 10.2461 13.1562 11.4262 13.1562 13.1962C13.1562 14.3325 14.0854 15.3378 15.4792 15.9059L15.3314 16.7364C19.4072 17.086 23.1451 15.753 23.1451 13.2399C23.1239 11.1202 20.3787 10.2461 18.1402 10.2461Z" fill="black"/>
</g>
<path d="M37.964 40.9912L37.964 41.1099C37.964 42.5343 37.1335 43.3652 35.7098 43.3652L11.7448 43.3652C10.3212 43.3652 9.49071 42.5343 9.49071 41.1099L9.49071 40.9912C9.49071 39.5668 8.5416 38.8546 7.23657 38.8546L6.9993 38.8546C5.57563 38.8546 4.50788 37.7863 4.50788 36.3619L4.50788 36.1245C4.50788 34.8187 3.79605 33.8691 2.37239 33.8691L2.25375 33.8691C0.830084 33.8691 -0.000386701 33.0382 -0.000386639 31.6138L-0.000385798 12.3842C-0.000385736 10.9598 0.830085 10.1289 2.25375 10.1289L2.37239 10.1289C3.79605 10.1289 4.50788 9.17929 4.50788 7.87358L4.50788 7.63618C4.50788 6.21177 5.57563 5.14346 6.9993 5.14346L7.23657 5.14346C8.5416 5.14346 9.49071 4.43125 9.49071 3.00683L9.49071 2.88813C9.49071 1.46372 10.3212 0.632811 11.7448 0.632811L35.7099 0.632812C37.1335 0.632812 37.964 1.46372 37.964 2.88813L37.964 3.00684C37.964 4.43125 38.9131 5.14346 40.2181 5.14346L40.4554 5.14346C41.8791 5.14346 42.9468 6.21177 42.9468 7.63618L42.9468 7.87358C42.9468 9.1793 43.6586 10.1289 45.0823 10.1289L45.2009 10.1289C46.6246 10.1289 47.4551 10.9598 47.4551 12.3842L47.4551 31.6138C47.4551 33.0382 46.6246 33.8691 45.2009 33.8691L45.0823 33.8691C43.6586 33.8691 42.9468 34.8187 42.9468 36.1245L42.9468 36.3619C42.9468 37.7863 41.8791 38.8546 40.4554 38.8546L40.2181 38.8546C38.9131 38.8546 37.964 39.5668 37.964 40.9912ZM35.5912 38.6172C37.0149 38.6172 37.7267 37.6676 37.7267 36.3619L37.7267 36.1245C37.7267 34.7 38.7945 33.6317 40.2181 33.6317L40.4554 33.6317C41.7604 33.6317 42.7095 32.9195 42.7095 31.4951L42.7095 12.5029C42.7095 11.0785 41.7604 10.3663 40.4554 10.3663L40.2181 10.3663C38.7945 10.3663 37.7267 9.298 37.7267 7.87358L37.7267 7.63618C37.7267 6.33047 37.0149 5.38086 35.5912 5.38086L11.8635 5.38086C10.4398 5.38086 9.72799 6.33047 9.72799 7.63618L9.72799 7.87358C9.72799 9.29799 8.66024 10.3663 7.23657 10.3663L6.9993 10.3663C5.69427 10.3663 4.74516 11.0785 4.74516 12.5029L4.74516 31.4951C4.74516 32.9195 5.69427 33.6317 6.9993 33.6317L7.23657 33.6317C8.66023 33.6317 9.72798 34.7 9.72798 36.1245L9.72798 36.3619C9.72798 37.6676 10.4398 38.6172 11.8635 38.6172L35.5912 38.6172Z" fill="white"/>
</svg>
