<svg width="25" height="26" viewBox="0 0 25 26" fill="none" xmlns="http://www.w3.org/2000/svg">
<path d="M12 2.90625L7.86667 2.90625C7.15556 2.90625 6.74074 3.32414 6.74074 4.04052L6.74074 4.10022C6.74074 4.8166 5.26667 5.17479 4.61481 5.17479L4.4963 5.17479C3.78519 5.17479 3.25185 5.71208 3.25185 6.42846L3.25185 6.54785C3.25185 7.20454 2.8963 7.68212 2.18518 7.68212L2.12592 7.68212C1.41481 7.68212 1 8.10001 1 8.81639L0.999999 16.9961C0.999999 17.7125 1.41481 18.1304 2.12592 18.1304L2.18518 18.1304C2.8963 18.1304 3.25185 18.608 3.25185 19.2646L3.25185 19.384C3.25185 20.1004 3.78519 20.6377 4.4963 20.6377L4.61481 20.6377C5.26667 20.6377 6.74074 20.9959 6.74074 21.7123L6.74074 21.772C6.74074 22.4884 7.15555 22.9062 7.86667 22.9062L12 22.9062" stroke="#FF0037" stroke-width="1.5" stroke-linecap="round"/>
<path d="M13 2.90625L18.1333 2.90625C18.8444 2.90625 19.2593 3.32414 19.2593 4.04052L19.2593 4.10022C19.2593 4.8166 19.7333 5.17479 20.3852 5.17479L20.5037 5.17479C21.2148 5.17479 21.7481 5.71208 21.7481 6.42846L21.7481 6.54785C21.7481 7.20454 22.1037 7.68212 22.8148 7.68212L22.8741 7.68212C23.5852 7.68212 24 8.10001 24 8.81639L24 16.9961C24 17.7125 23.5852 18.1304 22.8741 18.1304L22.8148 18.1304C22.1037 18.1304 21.7481 18.608 21.7481 19.2646L21.7481 19.384C21.7481 20.1004 21.2148 20.6377 20.5037 20.6377L20.3852 20.6377C19.7333 20.6377 19.2593 20.9959 19.2593 21.7123L19.2593 21.772C19.2593 22.4884 18.8444 22.9062 18.1333 22.9062L13 22.9062" stroke="#FF0037" stroke-width="1.5" stroke-linecap="round" stroke-linejoin="round" stroke-dasharray="2 8"/>
<path d="M13 1.15625V24.6562" stroke="#FF0037" stroke-width="1.5" stroke-linecap="round"/>
</svg>
